<svg xmlns="http://www.w3.org/2000/svg" xmlns:xlink="http://www.w3.org/1999/xlink" xmlns:inkscape="http://www.inkscape.org/namespaces/inkscape" version="1.1" width="829" height="238.667" viewBox="0 0 829 238.667">
<defs>
<clipPath id="clip_0">
<path transform="matrix(1,0,0,-1,0,238.667)" d="M0 238.667H829V0H0Z" data-index="0" style="visibility: visible;"></path>
</clipPath>
</defs>
<g>

<g inkscape:groupmode="layer" inkscape:label="Selfmade by NICF-Nettie">
<path transform="matrix(1,0,0,-1,32.8165,81.50421)" d="M0 0H-16.191V22.824H45.874V0H29.684V-146.072H0Z" data-index="2" style="visibility: visible; opacity: 1; fill: rgb(255, 255, 255);"></path>
<path transform="matrix(1,0,0,-1,121.9008,153.08821)" d="M0 0H-9.595V-74.488H-39.213V94.408H-9.595V22.824H0V94.408H29.827V-74.488H0Z" data-index="3" style="visibility: visible; opacity: 1; fill: rgb(255, 255, 255); stroke: rgb(255, 255, 255);"></path>
<path transform="matrix(1,0,0,-1,208.625,227.5765)" d="M0 0H-52.25V168.896H0V146.072H-22.453V97.313H-2.099V74.488H-22.453V22.824H0Z" data-index="4" style="visibility: visible; opacity: 1; fill: rgb(255, 255, 255); stroke: rgb(255, 255, 255);"></path>
<path transform="matrix(1,0,0,-1,237.6255,58.68051)" d="M0 0H29.777V-146.072H51.375V-168.896H0Z" data-index="5" style="visibility: visible; opacity: 1; fill: rgb(255, 255, 255);"></path>
<path transform="matrix(1,0,0,-1,324.6826,162.2171)" d="M0 0H11.204L5.602 74.488ZM-16.392 103.537H28.218L44.402-65.359H16.184L12.864-22.824H-1.66L-4.772-65.359H-33.198Z" data-index="6" style="visibility: visible; opacity: 1; fill: rgb(255, 255, 255);"></path>
<g clip-path="url(#clip_0)">
<path transform="matrix(1,0,0,-1,408.0017,173.2142)" d="M0 0C0 19.711-38.917 30.293-38.917 58.304V90.05C-38.917 109.969-31.803 116.816-15.274 116.816H3.557C20.923 116.816 27.827 109.347 27.827 90.05V59.549H0V90.257C0 93.577-2.093 95.445-4.603 95.445-7.323 95.445-9.415 93.577-9.415 90.257V63.284C-9.415 44.195 28.873 37.141 28.873 5.81V-29.256C28.873-49.175 21.759-56.229 5.23-56.229H-13.809C-30.966-56.229-37.87-48.553-37.87-29.256V6.017H-9.415V-29.464C-9.415-32.783-7.532-34.65-4.812-34.65-2.093-34.65 0-32.783 0-29.464Z" data-index="7" style="visibility: visible; opacity: 1; fill: rgb(255, 255, 255);"></path>
<path transform="matrix(1,0,0,-1,454.9685,81.50421)" d="M0 0H-16.29V22.824H46.156V0H29.866V-146.072H0Z" data-index="8" style="visibility: visible; opacity: 1; fill: rgb(255, 255, 255);"></path>
<path transform="matrix(1,0,0,-1,565.2713,83.371417)" d="M0 0C0 3.527-2.287 5.395-4.573 5.395-6.861 5.395-9.564 3.527-9.564 0V-119.099C-9.564-122.419-7.068-124.286-4.782-124.286-2.495-124.286 0-122.419 0-119.099ZM29.729-119.099C29.729-139.226 22.868-146.072 6.237-146.072H-14.137C-31.184-146.072-39.084-138.396-39.084-119.099V0C-39.084 20.126-32.224 26.973-15.8 26.973H4.573C21.621 26.973 29.729 19.504 29.729 0Z" data-index="9" style="visibility: visible; opacity: 1; fill: rgb(255, 255, 255); stroke: rgb(255, 255, 255);"></path>
<path transform="matrix(1,0,0,-1,629.6182,227.5765)" d="M0 0H-29.463V168.896H22.201V146.072H0V97.313H20.127V74.488H0Z" data-index="10" style="visibility: visible; opacity: 1; fill: rgb(255, 255, 255); stroke: rgb(255, 255, 255);"></path>
<path transform="matrix(1,0,0,-1,711.1797,58.68051)" d="M0 0H29.671V-143.79C29.671-163.917 22.823-170.763 6.225-170.763H-14.109C-31.123-170.763-39.008-163.086-39.008-143.79V0H-9.545V-143.79C-9.545-147.11-7.055-148.977-4.772-148.977-2.49-148.977 0-147.11 0-143.79Z" data-index="11" style="visibility: visible; opacity: 1; fill: rgb(255, 255, 255); stroke: rgb(255, 255, 255);"></path>
<path transform="matrix(1,0,0,-1,784.54,173.2142)" d="M0 0C0 19.711-38.593 30.293-38.593 58.304V90.05C-38.593 109.969-31.538 116.816-15.146 116.816H3.527C20.749 116.816 27.596 109.347 27.596 90.05V59.549H0V90.257C0 93.577-2.075 95.445-4.564 95.445-7.263 95.445-9.337 93.577-9.337 90.257V63.284C-9.337 44.195 28.634 37.141 28.634 5.81V-29.256C28.634-49.175 21.579-56.229 5.187-56.229H-13.694C-30.708-56.229-37.556-48.553-37.556-29.256V6.017H-9.337V-29.464C-9.337-32.783-7.47-34.65-4.772-34.65-2.075-34.65 0-32.783 0-29.464Z" data-index="12" style="visibility: visible; fill: rgb(255, 255, 255); stroke: rgb(255, 255, 255); opacity: 1;"></path>
<path transform="matrix(1,0,0,-1,0,238.667)" d="M434.55 200.394H437.164V217.655H434.55Z" data-index="13" style="visibility: visible; opacity: 1; fill: rgb(255, 255, 255); stroke: rgb(255, 255, 255);"></path>
<path transform="matrix(1,0,0,-1,425.7892,29.726502)" d="M0 0H-4.245V6.38H0C1.878 6.38 3.127 4.767 3.127 3.19 3.127 1.601 1.878 0 0 0M4.03-.686C5.196 .409 5.683 1.721 5.683 3.19 5.683 6.295 3.044 8.715 0 8.715H-6.789V-8.547H-4.245V-2.336H-.072L3.448-8.547H6.242L2.437-1.818C3.056-1.517 3.555-1.132 4.03-.686" data-index="14" style="visibility: visible; opacity: 1; fill: rgb(255, 255, 255); stroke: rgb(255, 255, 255);"></path>
<path transform="matrix(1,0,0,-1,406.6818,36.16661)" d="M0 0C-1.879 0-3.363 .662-4.596 1.878-5.96 3.214-6.559 4.743-6.559 6.524-6.559 10.207-3.638 13.049 0 13.049 3.674 13.049 6.558 10.172 6.558 6.524 6.558 2.841 3.638 0 0 0M0 15.372C-2.645 15.372-4.787 14.433-6.486 12.748-8.306 10.954-9.119 8.883-9.119 6.524-9.119 4.177-8.306 2.058-6.474 .277-4.787-1.372-2.609-2.323 0-2.323 2.608-2.323 4.811-1.396 6.498 .277 8.293 2.046 9.131 4.201 9.131 6.524 9.131 8.859 8.317 10.978 6.486 12.748 4.775 14.409 2.644 15.372 0 15.372" data-index="15" style="visibility: visible; fill: rgb(255, 255, 255); opacity: 1;"></path>
<path transform="matrix(1,0,0,-1,503.7719,35.938005)" d="M0 0V14.926H-2.615V-2.335H10.009V0Z" data-index="16" style="visibility: visible; opacity: 1; fill: rgb(255, 255, 255); stroke: rgb(255, 255, 255);"></path>
<path transform="matrix(1,0,0,-1,488.3594,32.057603)" d="M0 0 2.863 7.086 5.733 0ZM1.728 11.046-5.369-6.216H-2.512L-.915-2.265H6.65L8.25-6.216H11.084L4.012 11.046Z" data-index="17" style="visibility: visible; opacity: 1; fill: rgb(255, 255, 255); stroke: rgb(255, 255, 255);"></path>
<path transform="matrix(1,0,0,-1,478.6426,33.602815)" d="M0 0-8.525 12.591H-10.643V-4.67H-8.206V7.969L.318-4.67H2.436V12.591H0Z" data-index="18" style="visibility: visible; fill: rgb(255, 255, 255); stroke: rgb(255, 255, 255); opacity: 1;"></path>
<path transform="matrix(1,0,0,-1,449.2529,29.459107)" d="M0 0V-2.318C2.116-2.32 4.232-2.323 6.348-2.326 5.659-4.962 3.28-6.707 .092-6.707-1.775-6.707-3.262-6.057-4.475-4.829-5.808-3.482-6.426-1.953-6.426-.183-6.426 2.453-4.856 4.836-2.43 5.859-1.657 6.208-.788 6.341 .092 6.341 .55 6.341 2.641 6.287 4.435 4.754 4.935 4.326 5.279 3.897 5.496 3.592 6.178 4.016 6.861 4.439 7.543 4.863 7.001 5.623 5.779 7.101 3.684 7.978 3.396 8.099 2.003 8.664 .092 8.664-2.549 8.664-4.654 7.737-6.355 6.04-8.08 4.319-8.972 2.284-8.972-.183-8.972-3.831-6.831-6.924-3.488-8.345-2.347-8.826-1.169-9.031 .092-9.031 .396-9.031 5.991-8.87 8.231-4.418 8.574-3.736 9.21-2.215 9.048 .009 6.032 .006 3.016 .003 0 0" data-index="19" style="visibility: visible; opacity: 1; fill: rgb(255, 255, 255); stroke: rgb(255, 255, 255);"></path>
<path transform="matrix(1,0,0,-1,0,238.667)" d="M461.163 200.394H463.777V217.655H461.163Z" data-index="20" style="visibility: visible; fill: rgb(255, 255, 255); stroke: rgb(255, 255, 255); opacity: 1;"></path>
<path transform="matrix(1,0,0,-1,339.2857,38.723405)" d="M0 0H-8.3V11.969H-13.688V0H-22.244V30.848H-13.688V19.373H-8.3V30.848H0Z" data-index="21" style="visibility: visible; opacity: 1; fill: rgb(255, 255, 255);"></path>
<path transform="matrix(1,0,0,-1,377.3068,38.875307)" d="M0 0C8.538 .003 15.487 7.17 15.485 15.797 15.483 24.607 8.538 31.45 0 31.456-8.529 31.462-12.886 25.12-13.963 22.56-13.953 26.403-17.702 30.939-22.088 30.944H-36.217V.153L-23.044 .151C-17.732 .151-13.953 4.8-13.947 8.787-12.734 6.278-8.529-.003 0 0M-24.148 12.528C-22.929 12.528-21.969 11.311-21.969 9.926-21.969 8.54-22.929 7.324-24.148 7.324H-28.338V12.528ZM-24.132 24.089C-22.913 24.089-21.953 22.873-21.953 21.487-21.953 20.101-22.913 18.885-24.132 18.885H-28.323V24.089ZM-18.555 15.791C-17.595 15.914-15.995 17.023-15.431 17.731-15.629 16.853-15.645 14.313-15.413 13.436-16.056 14.436-17.58 15.668-18.555 15.791M-7.753 15.791C-7.753 20.12-4.28 23.629 .005 23.629 4.29 23.629 7.763 20.12 7.763 15.791 7.763 11.463 4.29 7.954 .005 7.954-4.28 7.954-7.753 11.463-7.753 15.791M.005 9.63C3.373 9.63 6.104 12.388 6.104 15.791 6.104 19.194 3.373 21.952 .005 21.952-3.363 21.952-6.094 19.194-6.094 15.791-6.094 12.388-3.363 9.63 .005 9.63" data-index="22" style="visibility: visible; opacity: 1; fill: rgb(255, 255, 255);"></path>
<path transform="matrix(1,0,0,-1,389.407,9.769608)" d="M0 0C0 .899 .662 1.578 1.511 1.578 2.35 1.578 3.012 .899 3.012 0 3.012-.915 2.35-1.588 1.511-1.588 .662-1.588 0-.915 0 0M1.511-1.905C2.521-1.905 3.385-1.1 3.385 0 3.385 1.09 2.521 1.895 1.511 1.895 .49 1.895-.373 1.09-.373 0-.373-1.1 .49-1.905 1.511-1.905M1.119-.151H1.491L2.055-1.1H2.418L1.81-.136C2.124-.095 2.364 .075 2.364 .467 2.364 .899 2.114 1.09 1.609 1.09H.795V-1.1H1.119ZM1.119 .131V.809H1.56C1.785 .809 2.026 .759 2.026 .488 2.026 .151 1.78 .131 1.506 .131Z" data-index="23" style="visibility: visible; opacity: 1; fill: rgb(255, 255, 255);"></path>
</g>
</g>
<g style="mix-blend-mode:difference">

</g>
</g>
</svg>